<?xml version="1.0" encoding="UTF-8" standalone="no"?>
<svg
   xmlns:dc="http://purl.org/dc/elements/1.1/"
   xmlns:cc="http://creativecommons.org/ns#"
   xmlns:rdf="http://www.w3.org/1999/02/22-rdf-syntax-ns#"
   xmlns:svg="http://www.w3.org/2000/svg"
   xmlns="http://www.w3.org/2000/svg"
   viewBox="0 0 869.29333 359.05334"
   height="359.05334"
   width="869.29333"
   xml:space="preserve"
   id="svg4518"
   version="1.1"><metadata
     id="metadata4524"><rdf:RDF><cc:Work
         rdf:about=""><dc:format>image/svg+xml</dc:format><dc:type
           rdf:resource="http://purl.org/dc/dcmitype/StillImage" /><dc:title></dc:title></cc:Work></rdf:RDF></metadata><defs
     id="defs4522" /><g
     transform="matrix(1.3333333,0,0,-1.3333333,0,359.05333)"
     id="g4526"><path
       d="m 318.597,32.0129 c -0.087,0.2871 -0.259,0.4019 -0.518,0.4019 h -1.926 c -0.259,0 -0.431,-0.1148 -0.518,-0.4019 L 311.438,16.459 c -0.058,-0.2012 -0.086,-0.3738 -0.086,-0.575 v -1.409 c 0,-0.2871 0.172,-0.4602 0.46,-0.4602 h 1.38 c 0.287,0 0.46,0.1731 0.46,0.4602 v 1.6391 l 0.862,3.3058 h 5.204 l 0.834,-3.3058 V 14.475 c 0,-0.2871 0.172,-0.4602 0.46,-0.4602 h 1.38 c 0.287,0 0.46,0.1731 0.46,0.4602 v 1.409 c 0,0.2012 -0.029,0.3738 -0.087,0.575 z m 0.575,-10.4649 h -4.112 l 2.07,8.0211 z m 16.876,10.8668 c -0.288,0 -0.46,-0.1718 -0.46,-0.4597 V 18.9602 l -6.872,13.1386 c -0.115,0.2012 -0.287,0.316 -0.546,0.316 h -0.891 c -0.288,0 -0.46,-0.1718 -0.46,-0.4597 V 14.475 c 0,-0.2871 0.172,-0.4602 0.46,-0.4602 h 1.38 c 0.287,0 0.46,0.1731 0.46,0.4602 V 27.4422 L 335.99,14.332 c 0.115,-0.2019 0.288,-0.3172 0.546,-0.3172 h 0.892 c 0.287,0 0.46,0.1731 0.46,0.4602 v 17.4801 c 0,0.2879 -0.173,0.4597 -0.46,0.4597 z m 6.468,0 c -0.287,0 -0.46,-0.1718 -0.46,-0.4597 V 14.475 c 0,-0.2871 0.173,-0.4602 0.46,-0.4602 h 5.06 c 3.767,0 5.549,1.9551 5.549,5.2622 v 7.9058 c 0,3.2774 -1.782,5.232 -5.549,5.232 z m 1.84,-2.1269 h 3.22 c 2.128,0 3.249,-0.9777 3.249,-2.9899 v -8.1652 c 0,-2.0129 -1.121,-2.9898 -3.249,-2.9898 h -3.22 z m 29.871,1.725 c -0.086,0.2871 -0.259,0.4019 -0.517,0.4019 h -1.927 c -0.258,0 -0.431,-0.1148 -0.517,-0.4019 L 367.068,16.459 c -0.057,-0.2012 -0.086,-0.3738 -0.086,-0.575 v -1.409 c 0,-0.2871 0.173,-0.4602 0.46,-0.4602 h 1.38 c 0.288,0 0.46,0.1731 0.46,0.4602 v 1.6391 l 0.863,3.3058 h 5.203 l 0.834,-3.3058 V 14.475 c 0,-0.2871 0.173,-0.4602 0.46,-0.4602 h 1.38 c 0.288,0 0.46,0.1731 0.46,0.4602 v 1.409 c 0,0.2012 -0.029,0.3738 -0.086,0.575 z m 0.575,-10.4649 h -4.111 l 2.07,8.0211 z m 18.716,5.7211 c 0,3.22 -1.782,5.1457 -5.548,5.1457 h -5.06 c -0.288,0 -0.46,-0.1718 -0.46,-0.4597 V 14.475 c 0,-0.2871 0.172,-0.4602 0.46,-0.4602 h 1.38 c 0.287,0 0.46,0.1731 0.46,0.4602 v 7.6191 h 3.306 l 3.249,-7.7339 c 0.086,-0.2301 0.258,-0.3454 0.517,-0.3454 h 1.236 c 0.288,0 0.46,0.1731 0.46,0.4602 v 0.4031 c 0,0.2008 -0.028,0.3739 -0.115,0.5457 l -3.018,7.0153 c 2.127,0.6898 3.133,2.3859 3.133,4.83 z m -8.768,-3.0472 v 6.066 h 3.22 c 2.127,0 3.248,-0.9488 3.248,-2.875 V 27.068 c 0,-1.9258 -1.121,-2.8461 -3.248,-2.8461 z m 24.063,7.7332 c 0,0.2879 -0.172,0.4597 -0.46,0.4597 h -10.867 c -0.288,0 -0.46,-0.1718 -0.46,-0.4597 V 30.748 c 0,-0.2878 0.172,-0.4601 0.46,-0.4601 h 4.284 V 14.475 c 0,-0.2871 0.172,-0.4602 0.46,-0.4602 h 1.38 c 0.287,0 0.46,0.1731 0.46,0.4602 v 15.8129 h 4.283 c 0.288,0 0.46,0.1723 0.46,0.4601 z m 9.056,0.748 c -3.651,0 -5.52,-1.898 -5.52,-4.9453 0,-6.1238 8.769,-4.8008 8.769,-9.2 0,-1.6387 -1.064,-2.7027 -3.22,-2.7027 -1.926,0 -3.076,0.8918 -3.22,2.7597 -0.029,0.2883 -0.172,0.4602 -0.489,0.4602 h -1.38 c -0.287,0 -0.46,-0.1719 -0.46,-0.4602 0.173,-3.0757 2.042,-4.8867 5.52,-4.8867 3.68,0 5.549,1.9258 5.549,4.9739 0,6.123 -8.769,4.7718 -8.769,9.171 0,1.6668 1.035,2.702 3.192,2.702 1.955,0 3.105,-0.8621 3.248,-2.7309 0.029,-0.2871 0.173,-0.4601 0.489,-0.4601 h 1.38 c 0.288,0 0.46,0.173 0.46,0.4601 -0.172,3.0481 -2.041,4.859 -5.549,4.859"
       style="fill:#ed114c;fill-opacity:1;fill-rule:nonzero;stroke:none;stroke-width:0.1"
       id="path4530" /><path
       d="m 318.597,65.6129 c -0.087,0.2871 -0.259,0.4019 -0.518,0.4019 h -1.926 c -0.259,0 -0.431,-0.1148 -0.518,-0.4019 L 311.438,50.059 c -0.058,-0.2012 -0.086,-0.3738 -0.086,-0.575 v -1.409 c 0,-0.2871 0.172,-0.4602 0.46,-0.4602 h 1.38 c 0.287,0 0.46,0.1731 0.46,0.4602 v 1.6391 l 0.862,3.3058 h 5.204 l 0.834,-3.3058 V 48.075 c 0,-0.2871 0.172,-0.4602 0.46,-0.4602 h 1.38 c 0.287,0 0.46,0.1731 0.46,0.4602 v 1.409 c 0,0.2012 -0.029,0.3738 -0.087,0.575 z m 0.575,-10.4649 h -4.112 l 2.07,8.0211 z m 8.107,10.8668 c -0.288,0 -0.46,-0.1718 -0.46,-0.4597 V 48.075 c 0,-0.2871 0.172,-0.4602 0.46,-0.4602 h 1.38 c 0.287,0 0.46,0.1731 0.46,0.4602 v 7.6191 h 3.22 c 3.766,0 5.549,1.9258 5.549,5.175 0,3.22 -1.783,5.1457 -5.549,5.1457 z m 1.84,-2.1269 h 3.22 c 2.127,0 3.249,-0.9488 3.249,-2.875 V 60.668 c 0,-1.9258 -1.122,-2.8461 -3.249,-2.8461 h -3.22 z m 13.397,2.1269 c -0.287,0 -0.46,-0.1718 -0.46,-0.4597 V 48.075 c 0,-0.2871 0.173,-0.4602 0.46,-0.4602 h 1.38 c 0.288,0 0.46,0.1731 0.46,0.4602 v 7.6191 h 3.22 c 3.767,0 5.549,1.9258 5.549,5.175 0,3.22 -1.782,5.1457 -5.549,5.1457 z m 1.84,-2.1269 h 3.22 c 2.128,0 3.249,-0.9488 3.249,-2.875 V 60.668 c 0,-1.9258 -1.121,-2.8461 -3.249,-2.8461 h -3.22 z M 360.083,49.743 v 15.8121 c 0,0.2879 -0.173,0.4597 -0.46,0.4597 h -1.38 c -0.288,0 -0.46,-0.1718 -0.46,-0.4597 V 48.075 c 0,-0.2871 0.172,-0.4602 0.46,-0.4602 h 9.142 c 0.288,0 0.46,0.1731 0.46,0.4602 v 1.2078 c 0,0.2871 -0.172,0.4602 -0.46,0.4602 z m 18.543,14.1449 h 3.134 c 0.287,0 0.46,0.1723 0.46,0.4601 v 1.2071 c 0,0.2879 -0.173,0.4597 -0.46,0.4597 h -8.568 c -0.287,0 -0.46,-0.1718 -0.46,-0.4597 V 64.348 c 0,-0.2878 0.173,-0.4601 0.46,-0.4601 h 3.134 V 49.743 h -3.134 c -0.287,0 -0.46,-0.1731 -0.46,-0.4602 V 48.075 c 0,-0.2871 0.173,-0.4602 0.46,-0.4602 h 8.568 c 0.287,0 0.46,0.1731 0.46,0.4602 v 1.2078 c 0,0.2871 -0.173,0.4602 -0.46,0.4602 h -3.134 z m 11.356,0 h 7.303 c 0.287,0 0.46,0.1723 0.46,0.4601 v 1.2071 c 0,0.2879 -0.173,0.4597 -0.46,0.4597 h -9.143 c -0.287,0 -0.46,-0.1718 -0.46,-0.4597 V 48.075 c 0,-0.2871 0.173,-0.4602 0.46,-0.4602 h 9.143 c 0.287,0 0.46,0.1731 0.46,0.4602 v 1.2078 c 0,0.2871 -0.173,0.4602 -0.46,0.4602 h -7.303 v 6.009 h 5.865 c 0.288,0 0.46,0.1718 0.46,0.4601 v 1.207 c 0,0.2879 -0.172,0.4598 -0.46,0.4598 h -5.865 z m 12.909,2.1269 c -0.287,0 -0.46,-0.1718 -0.46,-0.4597 V 48.075 c 0,-0.2871 0.173,-0.4602 0.46,-0.4602 h 5.06 c 3.766,0 5.549,1.9551 5.549,5.2622 v 7.9058 c 0,3.2774 -1.783,5.232 -5.549,5.232 z m 1.84,-2.1269 h 3.22 c 2.128,0 3.249,-0.9777 3.249,-2.9899 v -8.1652 c 0,-2.0129 -1.121,-2.9898 -3.249,-2.9898 h -3.22 z m 28.376,2.4152 c -3.651,0 -5.52,-1.898 -5.52,-4.9453 0,-6.1238 8.769,-4.8008 8.769,-9.2 0,-1.6387 -1.064,-2.7027 -3.22,-2.7027 -1.927,0 -3.077,0.8918 -3.22,2.7597 -0.029,0.2883 -0.173,0.4602 -0.489,0.4602 h -1.38 c -0.288,0 -0.46,-0.1719 -0.46,-0.4602 0.172,-3.0757 2.041,-4.8867 5.52,-4.8867 3.68,0 5.549,1.9258 5.549,4.9739 0,6.123 -8.769,4.7718 -8.769,9.171 0,1.6668 1.035,2.702 3.191,2.702 1.955,0 3.105,-0.8621 3.249,-2.7309 0.029,-0.2871 0.172,-0.4601 0.489,-0.4601 h 1.38 c 0.287,0 0.46,0.173 0.46,0.4601 -0.173,3.0481 -2.042,4.859 -5.549,4.859 z m 15.237,0 c -3.766,0 -5.52,-1.9551 -5.52,-5.2332 v -8.4808 c 0,-3.3063 1.754,-5.261 5.52,-5.261 3.767,0 5.549,1.9547 5.549,5.261 v 0.2879 c 0,0.2871 -0.172,0.4601 -0.46,0.4601 h -1.38 c -0.287,0 -0.46,-0.173 -0.46,-0.4601 v -0.4321 c 0,-2.0121 -1.121,-2.9898 -3.249,-2.9898 -2.127,0 -3.22,0.9777 -3.22,2.9898 v 8.7403 c 0,2.0128 1.093,2.9898 3.22,2.9898 2.128,0 3.249,-0.977 3.249,-2.9898 v -0.4024 c 0,-0.2879 0.173,-0.4598 0.46,-0.4598 h 1.38 c 0.288,0 0.46,0.1719 0.46,0.4598 v 0.2871 c 0,3.2781 -1.782,5.2332 -5.549,5.2332 z m 16.388,-2.4152 h 3.134 c 0.287,0 0.46,0.1723 0.46,0.4601 v 1.2071 c 0,0.2879 -0.173,0.4597 -0.46,0.4597 h -8.568 c -0.287,0 -0.46,-0.1718 -0.46,-0.4597 V 64.348 c 0,-0.2878 0.173,-0.4601 0.46,-0.4601 h 3.134 V 49.743 h -3.134 c -0.287,0 -0.46,-0.1731 -0.46,-0.4602 V 48.075 c 0,-0.2871 0.173,-0.4602 0.46,-0.4602 h 8.568 c 0.287,0 0.46,0.1731 0.46,0.4602 v 1.2078 c 0,0.2871 -0.173,0.4602 -0.46,0.4602 h -3.134 z m 11.356,0 h 7.303 c 0.287,0 0.46,0.1723 0.46,0.4601 v 1.2071 c 0,0.2879 -0.173,0.4597 -0.46,0.4597 h -9.143 c -0.287,0 -0.46,-0.1718 -0.46,-0.4597 V 48.075 c 0,-0.2871 0.173,-0.4602 0.46,-0.4602 h 9.143 c 0.287,0 0.46,0.1731 0.46,0.4602 v 1.2078 c 0,0.2871 -0.173,0.4602 -0.46,0.4602 h -7.303 v 6.009 h 5.865 c 0.288,0 0.46,0.1718 0.46,0.4601 v 1.207 c 0,0.2879 -0.172,0.4598 -0.46,0.4598 h -5.865 z m 21.678,2.1269 c -0.288,0 -0.46,-0.1718 -0.46,-0.4597 V 52.5602 l -6.872,13.1386 c -0.115,0.2012 -0.287,0.316 -0.546,0.316 h -0.891 c -0.288,0 -0.46,-0.1718 -0.46,-0.4597 V 48.075 c 0,-0.2871 0.172,-0.4602 0.46,-0.4602 h 1.38 c 0.287,0 0.46,0.1731 0.46,0.4602 v 12.9672 l 6.871,-13.1102 c 0.115,-0.2019 0.288,-0.3172 0.546,-0.3172 h 0.892 c 0.287,0 0.46,0.1731 0.46,0.4602 v 17.4801 c 0,0.2879 -0.173,0.4597 -0.46,0.4597 z m 11.528,0.2883 c -3.766,0 -5.52,-1.9551 -5.52,-5.2332 v -8.4808 c 0,-3.3063 1.754,-5.261 5.52,-5.261 3.766,0 5.549,1.9547 5.549,5.261 v 0.2879 c 0,0.2871 -0.173,0.4601 -0.46,0.4601 h -1.38 c -0.288,0 -0.46,-0.173 -0.46,-0.4601 v -0.4321 c 0,-2.0121 -1.121,-2.9898 -3.249,-2.9898 -2.127,0 -3.22,0.9777 -3.22,2.9898 v 8.7403 c 0,2.0128 1.093,2.9898 3.22,2.9898 2.128,0 3.249,-0.977 3.249,-2.9898 v -0.4024 c 0,-0.2879 0.172,-0.4598 0.46,-0.4598 h 1.38 c 0.287,0 0.46,0.1719 0.46,0.4598 v 0.2871 c 0,3.2781 -1.783,5.2332 -5.549,5.2332 z M 521.8,63.8879 h 7.303 c 0.287,0 0.46,0.1723 0.46,0.4601 v 1.2071 c 0,0.2879 -0.173,0.4597 -0.46,0.4597 h -9.143 c -0.287,0 -0.46,-0.1718 -0.46,-0.4597 V 48.075 c 0,-0.2871 0.173,-0.4602 0.46,-0.4602 h 9.143 c 0.287,0 0.46,0.1731 0.46,0.4602 v 1.2078 c 0,0.2871 -0.173,0.4602 -0.46,0.4602 H 521.8 v 6.009 h 5.865 c 0.288,0 0.46,0.1718 0.46,0.4601 v 1.207 c 0,0.2879 -0.172,0.4598 -0.46,0.4598 H 521.8 Z m 17.969,2.4152 c -3.651,0 -5.52,-1.898 -5.52,-4.9453 0,-6.1238 8.769,-4.8008 8.769,-9.2 0,-1.6387 -1.064,-2.7027 -3.22,-2.7027 -1.926,0 -3.076,0.8918 -3.22,2.7597 -0.029,0.2883 -0.173,0.4602 -0.489,0.4602 h -1.38 c -0.287,0 -0.46,-0.1719 -0.46,-0.4602 0.173,-3.0757 2.041,-4.8867 5.52,-4.8867 3.68,0 5.549,1.9258 5.549,4.9739 0,6.123 -8.769,4.7718 -8.769,9.171 0,1.6668 1.035,2.702 3.191,2.702 1.955,0 3.105,-0.8621 3.249,-2.7309 0.029,-0.2871 0.173,-0.4601 0.489,-0.4601 h 1.38 c 0.287,0 0.46,0.173 0.46,0.4601 -0.173,3.0481 -2.041,4.859 -5.549,4.859"
       style="fill:#ed114c;fill-opacity:1;fill-rule:nonzero;stroke:none;stroke-width:0.1"
       id="path4532" /><path
       d="m 322.65,99.1551 c 0,0.2879 -0.172,0.4597 -0.46,0.4597 h -1.38 c -0.287,0 -0.46,-0.1718 -0.46,-0.4597 V 86.0449 c 0,-2.0121 -1.121,-2.9898 -3.248,-2.9898 -2.128,0 -3.22,0.9777 -3.22,2.9898 v 13.1102 c 0,0.2879 -0.173,0.4597 -0.46,0.4597 h -1.38 c -0.288,0 -0.46,-0.1718 -0.46,-0.4597 v -12.966 c 0,-3.3063 1.753,-5.261 5.52,-5.261 3.766,0 5.548,1.9547 5.548,5.261 z m 13.398,0.4597 c -0.288,0 -0.46,-0.1718 -0.46,-0.4597 V 86.1602 l -6.872,13.1386 c -0.115,0.2012 -0.287,0.316 -0.546,0.316 h -0.891 c -0.288,0 -0.46,-0.1718 -0.46,-0.4597 V 81.675 c 0,-0.2871 0.172,-0.4602 0.46,-0.4602 h 1.38 c 0.287,0 0.46,0.1731 0.46,0.4602 V 94.6422 L 335.99,81.532 c 0.115,-0.2019 0.288,-0.3172 0.546,-0.3172 h 0.892 c 0.287,0 0.46,0.1731 0.46,0.4602 v 17.4801 c 0,0.2879 -0.173,0.4597 -0.46,0.4597 z m 12.678,-2.1269 h 3.134 c 0.288,0 0.46,0.1723 0.46,0.4601 v 1.2071 c 0,0.2879 -0.172,0.4597 -0.46,0.4597 h -8.567 c -0.288,0 -0.46,-0.1718 -0.46,-0.4597 V 97.948 c 0,-0.2878 0.172,-0.4601 0.46,-0.4601 h 3.133 V 83.343 h -3.133 c -0.288,0 -0.46,-0.1731 -0.46,-0.4602 V 81.675 c 0,-0.2871 0.172,-0.4602 0.46,-0.4602 h 8.567 c 0.288,0 0.46,0.1731 0.46,0.4602 v 1.2078 c 0,0.2871 -0.172,0.4602 -0.46,0.4602 h -3.134 z m 17.998,2.1269 c -0.288,0 -0.46,-0.1718 -0.46,-0.4597 v -1.6379 l -3.45,-13.4551 -3.45,13.4551 v 1.6379 c 0,0.2879 -0.173,0.4597 -0.46,0.4597 h -1.38 c -0.288,0 -0.46,-0.1718 -0.46,-0.4597 v -1.4082 c 0,-0.202 0.029,-0.3739 0.086,-0.575 l 4.198,-15.5539 c 0.086,-0.2879 0.258,-0.4032 0.517,-0.4032 h 1.926 c 0.259,0 0.432,0.1153 0.518,0.4032 l 4.169,15.5539 c 0.057,0.2011 0.086,0.373 0.086,0.575 v 1.4082 c 0,0.2879 -0.173,0.4597 -0.46,0.4597 z m 8.596,-2.1269 h 7.303 c 0.287,0 0.46,0.1723 0.46,0.4601 v 1.2071 c 0,0.2879 -0.173,0.4597 -0.46,0.4597 h -9.143 c -0.287,0 -0.46,-0.1718 -0.46,-0.4597 V 81.675 c 0,-0.2871 0.173,-0.4602 0.46,-0.4602 h 9.143 c 0.287,0 0.46,0.1731 0.46,0.4602 v 1.2078 c 0,0.2871 -0.173,0.4602 -0.46,0.4602 h -7.303 v 6.009 h 5.865 c 0.288,0 0.46,0.1718 0.46,0.4601 v 1.207 c 0,0.2879 -0.172,0.4598 -0.46,0.4598 h -5.865 z m 23.518,-3.0188 c 0,3.22 -1.783,5.1457 -5.549,5.1457 h -5.06 c -0.288,0 -0.46,-0.1718 -0.46,-0.4597 V 81.675 c 0,-0.2871 0.172,-0.4602 0.46,-0.4602 h 1.38 c 0.287,0 0.46,0.1731 0.46,0.4602 v 7.6191 h 3.306 l 3.249,-7.7339 c 0.086,-0.2301 0.259,-0.3454 0.517,-0.3454 h 1.237 c 0.287,0 0.46,0.1731 0.46,0.4602 v 0.4031 c 0,0.2008 -0.029,0.3739 -0.115,0.5457 l -3.019,7.0153 c 2.127,0.6898 3.134,2.3859 3.134,4.83 z m -8.769,-3.0472 v 6.066 h 3.22 c 2.127,0 3.249,-0.9488 3.249,-2.875 V 94.268 c 0,-1.9258 -1.122,-2.8461 -3.249,-2.8461 z m 18.457,8.4812 c -3.651,0 -5.52,-1.898 -5.52,-4.9453 0,-6.1238 8.769,-4.8008 8.769,-9.2 0,-1.6387 -1.064,-2.7027 -3.22,-2.7027 -1.926,0 -3.076,0.8918 -3.22,2.7597 -0.029,0.2883 -0.172,0.4602 -0.489,0.4602 h -1.38 c -0.287,0 -0.46,-0.1719 -0.46,-0.4602 0.173,-3.0757 2.042,-4.8867 5.52,-4.8867 3.68,0 5.549,1.9258 5.549,4.9739 0,6.123 -8.769,4.7718 -8.769,9.171 0,1.6668 1.035,2.702 3.192,2.702 1.955,0 3.105,-0.8621 3.248,-2.7309 0.029,-0.2871 0.173,-0.4601 0.489,-0.4601 h 1.38 c 0.288,0 0.46,0.173 0.46,0.4601 -0.172,3.0481 -2.041,4.859 -5.549,4.859 z m 16.388,-2.4152 h 3.133 c 0.288,0 0.46,0.1723 0.46,0.4601 v 1.2071 c 0,0.2879 -0.172,0.4597 -0.46,0.4597 h -8.567 c -0.288,0 -0.46,-0.1718 -0.46,-0.4597 V 97.948 c 0,-0.2878 0.172,-0.4601 0.46,-0.4601 h 3.134 V 83.343 h -3.134 c -0.288,0 -0.46,-0.1731 -0.46,-0.4602 V 81.675 c 0,-0.2871 0.172,-0.4602 0.46,-0.4602 h 8.567 c 0.288,0 0.46,0.1731 0.46,0.4602 v 1.2078 c 0,0.2871 -0.172,0.4602 -0.46,0.4602 h -3.133 z m 19.693,1.6672 c 0,0.2879 -0.172,0.4597 -0.46,0.4597 H 433.28 c -0.288,0 -0.46,-0.1718 -0.46,-0.4597 V 97.948 c 0,-0.2878 0.172,-0.4601 0.46,-0.4601 h 4.284 V 81.675 c 0,-0.2871 0.172,-0.4602 0.46,-0.4602 h 1.38 c 0.287,0 0.46,0.1731 0.46,0.4602 v 15.8129 h 4.283 c 0.288,0 0.46,0.1723 0.46,0.4601 z m 14.749,0 c 0,0.2879 -0.172,0.4597 -0.46,0.4597 h -1.38 c -0.287,0 -0.46,-0.1718 -0.46,-0.4597 V 97.143 l -3.392,-6.3828 -3.364,6.3828 v 2.0121 c 0,0.2879 -0.173,0.4597 -0.46,0.4597 h -1.38 c -0.288,0 -0.46,-0.1718 -0.46,-0.4597 v -2.2422 c 0,-0.2301 0.029,-0.4027 0.144,-0.575 l 4.37,-7.8488 V 81.675 c 0,-0.2871 0.172,-0.4602 0.46,-0.4602 h 1.38 c 0.287,0 0.46,0.1731 0.46,0.4602 v 6.7852 l 4.398,7.8777 c 0.115,0.1723 0.144,0.3449 0.144,0.575 z m 19.463,0.748 c -3.766,0 -5.52,-1.9551 -5.52,-5.2332 v -8.4808 c 0,-3.3063 1.754,-5.261 5.52,-5.261 3.767,0 5.549,1.9547 5.549,5.261 v 8.4808 c 0,3.2781 -1.782,5.2332 -5.549,5.2332 z m 0,-2.1281 c 2.128,0 3.249,-0.977 3.249,-2.9898 v -8.7403 c 0,-2.0121 -1.121,-2.9898 -3.249,-2.9898 -2.127,0 -3.22,0.9777 -3.22,2.9898 v 8.7403 c 0,2.0128 1.093,2.9898 3.22,2.9898 z m 12.507,-0.2871 h 7.302 c 0.288,0 0.46,0.1723 0.46,0.4601 v 1.2071 c 0,0.2879 -0.172,0.4597 -0.46,0.4597 h -9.142 c -0.288,0 -0.46,-0.1718 -0.46,-0.4597 V 81.675 c 0,-0.2871 0.172,-0.4602 0.46,-0.4602 h 1.38 c 0.287,0 0.46,0.1731 0.46,0.4602 v 7.677 h 5.865 c 0.287,0 0.46,0.1718 0.46,0.4601 v 1.207 c 0,0.2879 -0.173,0.4598 -0.46,0.4598 h -5.865 v 6.009"
       style="fill:#ed114c;fill-opacity:1;fill-rule:nonzero;stroke:none;stroke-width:0.1"
       id="path4534" /><path
       d="m 317.433,134.599 c -4.08,0 -6,-2.13 -6,-5.7 v -8.4 c 0,-3.57 1.92,-5.7 6,-5.7 4.08,0 6,2.13 6,5.7 v 8.4 c 0,3.57 -1.92,5.7 -6,5.7 z m 0,-3.3 c 1.47,0 2.4,-0.57 2.4,-2.1 v -9 c 0,-1.53 -0.93,-2.1 -2.4,-2.1 -1.47,0 -2.4,0.57 -2.4,2.1 v 9 c 0,1.53 0.93,2.1 2.4,2.1 z m 15.9,3.3 c -3.87,0 -6,-2.04 -6,-5.55 0,-6.15 8.4,-5.37 8.4,-9 0,-1.23 -0.81,-1.95 -2.34,-1.95 -1.2,0 -2.19,0.51 -2.4,1.89 -0.09,0.45 -0.27,0.66 -0.69,0.66 h -2.31 c -0.42,0 -0.66,-0.24 -0.63,-0.69 0.24,-3.24 2.34,-5.16 5.97,-5.16 3.87,0 6,2.04 6,5.55 0,6.15 -8.4,5.37 -8.4,9 0,1.23 0.81,1.95 2.34,1.95 1.2,0 2.19,-0.51 2.4,-1.89 0.09,-0.45 0.27,-0.66 0.69,-0.66 h 2.31 c 0.42,0 0.66,0.24 0.63,0.69 -0.24,3.24 -2.34,5.16 -5.97,5.16 z m 21.6,-0.96 c 0,0.42 -0.24,0.66 -0.66,0.66 h -10.68 c -0.42,0 -0.66,-0.24 -0.66,-0.66 v -1.98 c 0,-0.42 0.24,-0.66 0.66,-0.66 h 3.54 v -15.24 c 0,-0.42 0.24,-0.66 0.66,-0.66 h 2.28 c 0.42,0 0.66,0.24 0.66,0.66 v 15.24 h 3.54 c 0.42,0 0.66,0.24 0.66,0.66 z m 13.23,0.66 c -0.42,0 -0.66,-0.21 -0.69,-0.63 l -0.81,-10.83 -1.32,3.18 c -0.15,0.36 -0.39,0.51 -0.75,0.51 h -0.15 c -0.36,0 -0.6,-0.15 -0.75,-0.51 l -1.32,-3.12 -0.78,10.77 c -0.03,0.42 -0.27,0.63 -0.69,0.63 h -2.1 c -0.45,0 -0.66,-0.24 -0.66,-0.69 l 1.14,-17.88 c 0.03,-0.42 0.24,-0.63 0.66,-0.63 h 1.56 c 0.39,0 0.63,0.18 0.78,0.54 l 2.25,6.09 2.25,-6.09 c 0.15,-0.36 0.39,-0.54 0.78,-0.54 h 1.56 c 0.42,0 0.63,0.21 0.66,0.63 l 1.14,17.88 c 0,0.45 -0.21,0.69 -0.66,0.69 z m 10.47,-3.3 h 6.54 c 0.42,0 0.66,0.24 0.66,0.66 v 1.98 c 0,0.42 -0.24,0.66 -0.66,0.66 h -9.48 c -0.42,0 -0.66,-0.24 -0.66,-0.66 v -17.88 c 0,-0.42 0.24,-0.66 0.66,-0.66 h 9.48 c 0.42,0 0.66,0.24 0.66,0.66 v 1.98 c 0,0.42 -0.24,0.66 -0.66,0.66 h -6.54 v 4.65 h 5.04 c 0.42,0 0.66,0.24 0.66,0.66 v 1.98 c 0,0.42 -0.24,0.66 -0.66,0.66 h -5.04 z m 17.7,3.6 c -3.87,0 -6,-2.04 -6,-5.55 0,-6.15 8.4,-5.37 8.4,-9 0,-1.23 -0.81,-1.95 -2.34,-1.95 -1.2,0 -2.19,0.51 -2.4,1.89 -0.09,0.45 -0.27,0.66 -0.69,0.66 h -2.31 c -0.42,0 -0.66,-0.24 -0.63,-0.69 0.24,-3.24 2.34,-5.16 5.97,-5.16 3.87,0 6,2.04 6,5.55 0,6.15 -8.4,5.37 -8.4,9 0,1.23 0.81,1.95 2.34,1.95 1.2,0 2.19,-0.51 2.4,-1.89 0.09,-0.45 0.27,-0.66 0.69,-0.66 h 2.31 c 0.42,0 0.66,0.24 0.63,0.69 -0.24,3.24 -2.34,5.16 -5.97,5.16 z m 21.601,-0.96 c 0,0.42 -0.24,0.66 -0.66,0.66 h -10.681 c -0.42,0 -0.66,-0.24 -0.66,-0.66 v -1.98 c 0,-0.42 0.24,-0.66 0.66,-0.66 h 3.54 v -15.24 c 0,-0.42 0.24,-0.66 0.66,-0.66 h 2.281 c 0.42,0 0.66,0.24 0.66,0.66 v 15.24 h 3.54 c 0.42,0 0.66,0.24 0.66,0.66 z m 7.799,-2.64 h 6.541 c 0.42,0 0.66,0.24 0.66,0.66 v 1.98 c 0,0.42 -0.24,0.66 -0.66,0.66 h -9.481 c -0.42,0 -0.66,-0.24 -0.66,-0.66 v -17.88 c 0,-0.42 0.24,-0.66 0.66,-0.66 h 2.28 c 0.42,0 0.66,0.24 0.66,0.66 v 7.29 h 5.041 c 0.42,0 0.66,0.24 0.66,0.66 v 1.98 c 0,0.42 -0.24,0.66 -0.66,0.66 h -5.041 z m 18.121,2.73 c -0.09,0.39 -0.33,0.57 -0.72,0.57 h -3.6 c -0.39,0 -0.63,-0.18 -0.72,-0.57 l -3.54,-15.54 c -0.06,-0.3 -0.09,-0.51 -0.09,-0.78 v -1.65 c 0,-0.42 0.24,-0.66 0.66,-0.66 h 2.28 c 0.42,0 0.66,0.24 0.66,0.66 v 2.16 l 0.48,2.28 h 4.14 l 0.48,-2.28 v -2.16 c 0,-0.42 0.24,-0.66 0.66,-0.66 h 2.28 c 0.42,0 0.66,0.24 0.66,0.66 v 1.65 c 0,0.27 -0.03,0.48 -0.09,0.78 z m -1.11,-10.23 h -2.82 l 1.41,6.84 z m 12.69,-5.1 v 15.24 c 0,0.42 -0.24,0.66 -0.66,0.66 h -2.28 c -0.42,0 -0.66,-0.24 -0.66,-0.66 v -17.88 c 0,-0.42 0.24,-0.66 0.66,-0.66 h 9.48 c 0.42,0 0.66,0.24 0.66,0.66 v 1.98 c 0,0.42 -0.24,0.66 -0.66,0.66 z m 15.3,12.6 h 6.54 c 0.42,0 0.66,0.24 0.66,0.66 v 1.98 c 0,0.42 -0.24,0.66 -0.66,0.66 h -9.48 c -0.42,0 -0.66,-0.24 -0.66,-0.66 v -17.88 c 0,-0.42 0.24,-0.66 0.66,-0.66 h 9.48 c 0.42,0 0.66,0.24 0.66,0.66 v 1.98 c 0,0.42 -0.24,0.66 -0.66,0.66 h -6.54 v 4.65 h 5.04 c 0.42,0 0.66,0.24 0.66,0.66 v 1.98 c 0,0.42 -0.24,0.66 -0.66,0.66 h -5.04 z m 20.76,3.3 c -0.42,0 -0.66,-0.24 -0.66,-0.66 v -10.8 l -5.46,10.98 c -0.18,0.33 -0.42,0.48 -0.78,0.48 h -1.5 c -0.42,0 -0.66,-0.24 -0.66,-0.66 v -17.88 c 0,-0.42 0.24,-0.66 0.66,-0.66 h 2.28 c 0.42,0 0.66,0.24 0.66,0.66 v 10.8 l 5.46,-10.98 c 0.18,-0.33 0.42,-0.48 0.78,-0.48 h 1.5 c 0.42,0 0.66,0.24 0.66,0.66 v 17.88 c 0,0.42 -0.24,0.66 -0.66,0.66 z m 14.19,-10.2 c 0,0.42 -0.24,0.66 -0.66,0.66 h -5.88 c -0.42,0 -0.66,-0.24 -0.66,-0.66 v -1.62 c 0,-0.42 0.24,-0.66 0.66,-0.66 h 5.88 c 0.42,0 0.66,0.24 0.66,0.66 z m 8.25,-5.7 v 15.24 c 0,0.42 -0.24,0.66 -0.66,0.66 h -2.28 c -0.42,0 -0.66,-0.24 -0.66,-0.66 v -17.88 c 0,-0.42 0.24,-0.66 0.66,-0.66 h 9.48 c 0.42,0 0.66,0.24 0.66,0.66 v 1.98 c 0,0.42 -0.24,0.66 -0.66,0.66 z m 18.9,12.6 h 2.64 c 0.42,0 0.66,0.24 0.66,0.66 v 1.98 c 0,0.42 -0.24,0.66 -0.66,0.66 h -8.88 c -0.42,0 -0.66,-0.24 -0.66,-0.66 v -1.98 c 0,-0.42 0.24,-0.66 0.66,-0.66 h 2.64 v -12.6 h -2.64 c -0.42,0 -0.66,-0.24 -0.66,-0.66 v -1.98 c 0,-0.42 0.24,-0.66 0.66,-0.66 h 8.88 c 0.42,0 0.66,0.24 0.66,0.66 v 1.98 c 0,0.42 -0.24,0.66 -0.66,0.66 h -2.64 z m 8.76,3.3 c -0.42,0 -0.66,-0.24 -0.66,-0.66 v -17.88 c 0,-0.42 0.24,-0.66 0.66,-0.66 h 2.28 c 0.42,0 0.66,0.24 0.66,0.66 v 7.14 h 2.4 c 4.08,0 6,2.13 6,5.7 0,3.57 -1.92,5.7 -6,5.7 z m 2.94,-3.3 h 2.4 c 1.47,0 2.4,-0.57 2.4,-2.1 v -0.6 c 0,-1.53 -0.93,-2.1 -2.4,-2.1 h -2.4 z m 12.96,3.3 c -0.42,0 -0.66,-0.24 -0.66,-0.66 v -17.88 c 0,-0.42 0.24,-0.66 0.66,-0.66 h 2.28 c 0.42,0 0.66,0.24 0.66,0.66 v 7.14 h 2.4 c 4.08,0 6,2.13 6,5.7 0,3.57 -1.92,5.7 -6,5.7 z m 2.94,-3.3 h 2.4 c 1.47,0 2.4,-0.57 2.4,-2.1 v -0.6 c 0,-1.53 -0.93,-2.1 -2.4,-2.1 h -2.4 z m 16.5,0 h 6.54 c 0.42,0 0.661,0.24 0.661,0.66 v 1.98 c 0,0.42 -0.241,0.66 -0.661,0.66 h -9.48 c -0.42,0 -0.66,-0.24 -0.66,-0.66 v -17.88 c 0,-0.42 0.24,-0.66 0.66,-0.66 h 9.48 c 0.42,0 0.661,0.24 0.661,0.66 v 1.98 c 0,0.42 -0.241,0.66 -0.661,0.66 h -6.54 v 4.65 h 5.04 c 0.42,0 0.66,0.24 0.66,0.66 v 1.98 c 0,0.42 -0.24,0.66 -0.66,0.66 h -5.04 v 4.65"
       style="fill:#ed114c;fill-opacity:1;fill-rule:nonzero;stroke:none;stroke-width:0.1"
       id="path4536" /><path
       d="m 323.133,167.239 c 0,0.42 -0.24,0.66 -0.66,0.66 h -10.68 c -0.42,0 -0.66,-0.24 -0.66,-0.66 v -1.98 c 0,-0.42 0.24,-0.66 0.66,-0.66 h 3.54 v -15.24 c 0,-0.42 0.24,-0.66 0.66,-0.66 h 2.28 c 0.42,0 0.66,0.24 0.66,0.66 v 15.24 h 3.54 c 0.42,0 0.66,0.24 0.66,0.66 z m 7.8,-2.64 h 6.54 c 0.42,0 0.66,0.24 0.66,0.66 v 1.98 c 0,0.42 -0.24,0.66 -0.66,0.66 h -9.48 c -0.42,0 -0.66,-0.24 -0.66,-0.66 v -17.88 c 0,-0.42 0.24,-0.66 0.66,-0.66 h 9.48 c 0.42,0 0.66,0.24 0.66,0.66 v 1.98 c 0,0.42 -0.24,0.66 -0.66,0.66 h -6.54 v 4.65 h 5.04 c 0.42,0 0.66,0.24 0.66,0.66 v 1.98 c 0,0.42 -0.24,0.66 -0.66,0.66 h -5.04 z m 17.7,3.6 c -4.08,0 -6,-2.13 -6,-5.7 v -8.4 c 0,-3.57 1.92,-5.7 6,-5.7 4.08,0 6,2.13 6,5.7 v 0.15 c 0,0.42 -0.24,0.66 -0.66,0.66 h -2.28 c -0.42,0 -0.66,-0.24 -0.66,-0.66 v -0.45 c 0,-1.53 -0.93,-2.1 -2.4,-2.1 -1.47,0 -2.4,0.57 -2.4,2.1 v 9 c 0,1.53 0.93,2.1 2.4,2.1 1.47,0 2.4,-0.57 2.4,-2.1 v -0.45 c 0,-0.42 0.24,-0.66 0.66,-0.66 h 2.28 c 0.42,0 0.66,0.24 0.66,0.66 v 0.15 c 0,3.57 -1.92,5.7 -6,5.7 z m 18.96,-0.3 c -0.42,0 -0.66,-0.24 -0.66,-0.66 v -7.14 h -4.8 v 7.14 c 0,0.42 -0.24,0.66 -0.66,0.66 h -2.28 c -0.42,0 -0.66,-0.24 -0.66,-0.66 v -17.88 c 0,-0.42 0.24,-0.66 0.66,-0.66 h 2.28 c 0.42,0 0.66,0.24 0.66,0.66 v 7.44 h 4.8 v -7.44 c 0,-0.42 0.24,-0.66 0.66,-0.66 h 2.28 c 0.42,0 0.66,0.24 0.66,0.66 v 17.88 c 0,0.42 -0.24,0.66 -0.66,0.66 z m 15.9,0 c -0.42,0 -0.66,-0.24 -0.66,-0.66 v -10.8 l -5.46,10.98 c -0.18,0.33 -0.42,0.48 -0.78,0.48 h -1.5 c -0.42,0 -0.66,-0.24 -0.66,-0.66 v -17.88 c 0,-0.42 0.24,-0.66 0.66,-0.66 h 2.28 c 0.42,0 0.66,0.24 0.66,0.66 v 10.8 l 5.46,-10.98 c 0.18,-0.33 0.42,-0.48 0.78,-0.48 h 1.5 c 0.42,0 0.66,0.24 0.66,0.66 v 17.88 c 0,0.42 -0.24,0.66 -0.66,0.66 z m 14.64,-3.3 h 2.64 c 0.42,0 0.66,0.24 0.66,0.66 v 1.98 c 0,0.42 -0.24,0.66 -0.66,0.66 h -8.88 c -0.42,0 -0.66,-0.24 -0.66,-0.66 v -1.98 c 0,-0.42 0.24,-0.66 0.66,-0.66 h 2.64 v -12.6 h -2.64 c -0.42,0 -0.66,-0.24 -0.66,-0.66 v -1.98 c 0,-0.42 0.24,-0.66 0.66,-0.66 h 8.88 c 0.42,0 0.66,0.24 0.66,0.66 v 1.98 c 0,0.42 -0.24,0.66 -0.66,0.66 h -2.64 z m 14.101,3.6 c -3.871,0 -6.001,-2.04 -6.001,-5.55 0,-6.15 8.401,-5.37 8.401,-9 0,-1.23 -0.81,-1.95 -2.34,-1.95 -1.2,0 -2.191,0.51 -2.401,1.89 -0.09,0.45 -0.27,0.66 -0.69,0.66 h -2.31 c -0.42,0 -0.66,-0.24 -0.63,-0.69 0.24,-3.24 2.34,-5.16 5.971,-5.16 3.87,0 6,2.04 6,5.55 0,6.15 -8.401,5.37 -8.401,9 0,1.23 0.81,1.95 2.34,1.95 1.201,0 2.191,-0.51 2.401,-1.89 0.09,-0.45 0.27,-0.66 0.69,-0.66 h 2.31 c 0.42,0 0.66,0.24 0.63,0.69 -0.24,3.24 -2.34,5.16 -5.97,5.16 z m 15.9,0 c -4.08,0 -6,-2.13 -6,-5.7 v -8.4 c 0,-3.57 1.92,-5.7 6,-5.7 4.08,0 6,2.13 6,5.7 v 0.15 c 0,0.42 -0.24,0.66 -0.66,0.66 h -2.28 c -0.42,0 -0.66,-0.24 -0.66,-0.66 v -0.45 c 0,-1.53 -0.93,-2.1 -2.4,-2.1 -1.47,0 -2.4,0.57 -2.4,2.1 v 9 c 0,1.53 0.93,2.1 2.4,2.1 1.47,0 2.4,-0.57 2.4,-2.1 v -0.45 c 0,-0.42 0.24,-0.66 0.66,-0.66 h 2.28 c 0.42,0 0.66,0.24 0.66,0.66 v 0.15 c 0,3.57 -1.92,5.7 -6,5.7 z m 18.96,-0.3 c -0.42,0 -0.66,-0.24 -0.66,-0.66 v -7.14 h -4.8 v 7.14 c 0,0.42 -0.24,0.66 -0.66,0.66 h -2.28 c -0.42,0 -0.66,-0.24 -0.66,-0.66 v -17.88 c 0,-0.42 0.24,-0.66 0.66,-0.66 h 2.28 c 0.42,0 0.66,0.24 0.66,0.66 v 7.44 h 4.8 v -7.44 c 0,-0.42 0.24,-0.66 0.66,-0.66 h 2.28 c 0.42,0 0.66,0.24 0.66,0.66 v 17.88 c 0,0.42 -0.24,0.66 -0.66,0.66 z m 11.04,-3.3 h 6.54 c 0.42,0 0.66,0.24 0.66,0.66 v 1.98 c 0,0.42 -0.24,0.66 -0.66,0.66 h -9.48 c -0.42,0 -0.66,-0.24 -0.66,-0.66 v -17.88 c 0,-0.42 0.24,-0.66 0.66,-0.66 h 9.48 c 0.42,0 0.66,0.24 0.66,0.66 v 1.98 c 0,0.42 -0.24,0.66 -0.66,0.66 h -6.54 v 4.65 h 5.04 c 0.42,0 0.66,0.24 0.66,0.66 v 1.98 c 0,0.42 -0.24,0.66 -0.66,0.66 h -5.04 z m 30.96,3.3 c -0.42,0 -0.66,-0.24 -0.66,-0.66 v -7.14 h -4.8 v 7.14 c 0,0.42 -0.24,0.66 -0.66,0.66 h -2.28 c -0.42,0 -0.66,-0.24 -0.66,-0.66 v -17.88 c 0,-0.42 0.24,-0.66 0.66,-0.66 h 2.28 c 0.42,0 0.66,0.24 0.66,0.66 v 7.44 h 4.8 v -7.44 c 0,-0.42 0.24,-0.66 0.66,-0.66 h 2.28 c 0.42,0 0.66,0.24 0.66,0.66 v 17.88 c 0,0.42 -0.24,0.66 -0.66,0.66 z m 12.84,0.3 c -4.08,0 -6,-2.13 -6,-5.7 v -8.4 c 0,-3.57 1.92,-5.7 6,-5.7 4.08,0 6,2.13 6,5.7 v 8.4 c 0,3.57 -1.92,5.7 -6,5.7 z m 0,-3.3 c 1.47,0 2.4,-0.57 2.4,-2.1 v -9 c 0,-1.53 -0.93,-2.1 -2.4,-2.1 -1.47,0 -2.4,0.57 -2.4,2.1 v 9 c 0,1.53 0.93,2.1 2.4,2.1 z m 15.9,3.3 c -4.08,0 -6,-2.13 -6,-5.7 v -8.4 c 0,-3.57 1.92,-5.7 6,-5.7 4.08,0 6,2.13 6,5.7 v 0.15 c 0,0.42 -0.24,0.66 -0.66,0.66 h -2.28 c -0.42,0 -0.66,-0.24 -0.66,-0.66 v -0.45 c 0,-1.53 -0.93,-2.1 -2.4,-2.1 -1.47,0 -2.4,0.57 -2.4,2.1 v 9 c 0,1.53 0.93,2.1 2.4,2.1 1.47,0 2.4,-0.57 2.4,-2.1 v -0.45 c 0,-0.42 0.24,-0.66 0.66,-0.66 h 2.28 c 0.42,0 0.66,0.24 0.66,0.66 v 0.15 c 0,3.57 -1.92,5.7 -6,5.7 z m 18.96,-0.3 c -0.42,0 -0.66,-0.24 -0.66,-0.66 v -7.14 h -4.8 v 7.14 c 0,0.42 -0.24,0.66 -0.66,0.66 h -2.28 c -0.42,0 -0.66,-0.24 -0.66,-0.66 v -17.88 c 0,-0.42 0.24,-0.66 0.66,-0.66 h 2.28 c 0.42,0 0.66,0.24 0.66,0.66 v 7.44 h 4.8 v -7.44 c 0,-0.42 0.24,-0.66 0.66,-0.66 h 2.28 c 0.42,0 0.66,0.24 0.66,0.66 v 17.88 c 0,0.42 -0.24,0.66 -0.66,0.66 z m 12.841,0.3 c -3.87,0 -6.001,-2.04 -6.001,-5.55 0,-6.15 8.401,-5.37 8.401,-9 0,-1.23 -0.81,-1.95 -2.34,-1.95 -1.2,0 -2.19,0.51 -2.401,1.89 -0.089,0.45 -0.269,0.66 -0.69,0.66 h -2.31 c -0.42,0 -0.66,-0.24 -0.63,-0.69 0.24,-3.24 2.341,-5.16 5.971,-5.16 3.87,0 6,2.04 6,5.55 0,6.15 -8.401,5.37 -8.401,9 0,1.23 0.81,1.95 2.341,1.95 1.2,0 2.19,-0.51 2.4,-1.89 0.09,-0.45 0.27,-0.66 0.69,-0.66 h 2.31 c 0.42,0 0.66,0.24 0.63,0.69 -0.24,3.24 -2.34,5.16 -5.97,5.16 z m 15.9,0 c -4.08,0 -6,-2.13 -6,-5.7 v -8.4 c 0,-3.57 1.92,-5.7 6,-5.7 4.08,0 6,2.13 6,5.7 v 0.15 c 0,0.42 -0.24,0.66 -0.66,0.66 h -2.28 c -0.42,0 -0.66,-0.24 -0.66,-0.66 v -0.45 c 0,-1.53 -0.93,-2.1 -2.4,-2.1 -1.47,0 -2.4,0.57 -2.4,2.1 v 9 c 0,1.53 0.93,2.1 2.4,2.1 1.47,0 2.4,-0.57 2.4,-2.1 v -0.45 c 0,-0.42 0.24,-0.66 0.66,-0.66 h 2.28 c 0.42,0 0.66,0.24 0.66,0.66 v 0.15 c 0,3.57 -1.92,5.7 -6,5.7 z m 18.96,-0.3 c -0.42,0 -0.66,-0.24 -0.66,-0.66 v -7.14 h -4.8 v 7.14 c 0,0.42 -0.24,0.66 -0.66,0.66 h -2.28 c -0.42,0 -0.66,-0.24 -0.66,-0.66 v -17.88 c 0,-0.42 0.24,-0.66 0.66,-0.66 h 2.28 c 0.42,0 0.66,0.24 0.66,0.66 v 7.44 h 4.8 v -7.44 c 0,-0.42 0.24,-0.66 0.66,-0.66 h 2.28 c 0.42,0 0.66,0.24 0.66,0.66 v 17.88 c 0,0.42 -0.24,0.66 -0.66,0.66 z m 18.84,-0.66 c 0,0.42 -0.24,0.66 -0.66,0.66 h -2.28 c -0.42,0 -0.66,-0.24 -0.66,-0.66 v -13.44 c 0,-1.53 -0.93,-2.1 -2.4,-2.1 -1.47,0 -2.4,0.57 -2.4,2.1 v 13.44 c 0,0.42 -0.24,0.66 -0.66,0.66 h -2.28 c -0.42,0 -0.66,-0.24 -0.66,-0.66 v -13.14 c 0,-3.57 1.92,-5.7 6,-5.7 4.08,0 6,2.13 6,5.7 z m 8.1,-15.24 v 15.24 c 0,0.42 -0.24,0.66 -0.66,0.66 h -2.28 c -0.42,0 -0.66,-0.24 -0.66,-0.66 v -17.88 c 0,-0.42 0.24,-0.66 0.66,-0.66 h 9.48 c 0.42,0 0.66,0.24 0.66,0.66 v 1.98 c 0,0.42 -0.24,0.66 -0.66,0.66 z m 15.3,12.6 h 6.54 c 0.42,0 0.66,0.24 0.66,0.66 v 1.98 c 0,0.42 -0.24,0.66 -0.66,0.66 h -9.48 c -0.42,0 -0.66,-0.24 -0.66,-0.66 v -17.88 c 0,-0.42 0.24,-0.66 0.66,-0.66 h 9.48 c 0.42,0 0.66,0.24 0.66,0.66 v 1.98 c 0,0.42 -0.24,0.66 -0.66,0.66 h -6.54 v 4.65 h 5.04 c 0.42,0 0.66,0.24 0.66,0.66 v 1.98 c 0,0.42 -0.24,0.66 -0.66,0.66 h -5.04 v 4.65"
       style="fill:#ed114c;fill-opacity:1;fill-rule:nonzero;stroke:none;stroke-width:0.1"
       id="path4538" /><path
       d="m 78.1535,197.873 c 0,1.876 -1.0719,2.948 -2.948,2.948 H 27.5016 c -1.8762,0 -2.9481,-1.072 -2.9481,-2.948 v -8.844 c 0,-1.876 1.0719,-2.948 2.9481,-2.948 h 15.8121 v -68.072 c 0,-1.876 1.0718,-2.948 2.9476,-2.948 h 10.184 c 1.8762,0 2.9481,1.072 2.9481,2.948 v 68.072 h 15.8121 c 1.8761,0 2.948,1.072 2.948,2.948 z m 51.1875,2.948 c -1.876,0 -2.948,-1.072 -2.948,-2.948 v -31.892 h -21.44 v 31.892 c 0,1.876 -1.072,2.948 -2.948,2.948 H 91.8207 c -1.8762,0 -2.948,-1.072 -2.948,-2.948 v -79.864 c 0,-1.876 1.0718,-2.948 2.948,-2.948 h 10.1843 c 1.876,0 2.948,1.072 2.948,2.948 v 33.232 h 21.44 v -33.232 c 0,-1.876 1.072,-2.948 2.948,-2.948 h 10.184 c 1.876,0 2.948,1.072 2.948,2.948 v 79.864 c 0,1.876 -1.072,2.948 -2.948,2.948 h -10.184"
       style="fill:#ed114c;fill-opacity:1;fill-rule:nonzero;stroke:none;stroke-width:0.1"
       id="path4540" /><path
       d="m 115.657,101.115 c -18.2242,0 -26.8,-9.5138 -26.8,-25.4599 V 38.1352 c 0,-15.9461 8.5758,-25.4602 26.8,-25.4602 18.224,0 26.8,9.5141 26.8,25.4602 v 37.5199 c 0,15.9461 -8.576,25.4599 -26.8,25.4599 z m 0,-14.74 c 6.566,0 10.72,-2.5461 10.72,-9.3801 v -40.2 c 0,-6.834 -4.154,-9.3801 -10.72,-9.3801 -6.566,0 -10.72,2.5461 -10.72,9.3801 v 40.2 c 0,6.834 4.154,9.3801 10.72,9.3801 z m 87.234,13.4 c -1.876,0 -2.948,-0.9379 -3.082,-2.8141 l -3.618,-48.3738 -5.896,14.2039 c -0.67,1.6078 -1.742,2.2781 -3.35,2.2781 h -0.67 c -1.608,0 -2.68,-0.6703 -3.35,-2.2781 l -5.896,-13.9359 -3.484,48.1058 c -0.134,1.8762 -1.206,2.8141 -3.082,2.8141 h -9.38 c -2.01,0 -2.948,-1.0719 -2.948,-3.082 l 5.092,-79.8641 c 0.134,-1.8758 1.072,-2.8141 2.948,-2.8141 h 6.968 c 1.742,0 2.814,0.8043 3.484,2.4122 l 10.05,27.2019 10.05,-27.2019 c 0.67,-1.6079 1.742,-2.4122 3.484,-2.4122 h 6.968 c 1.876,0 2.814,0.9383 2.948,2.8141 l 5.092,79.8641 c 0,2.0101 -0.938,3.082 -2.948,3.082 z M 249.657,28.7551 V 96.827 c 0,1.8761 -1.072,2.948 -2.948,2.948 h -10.184 c -1.876,0 -2.948,-1.0719 -2.948,-2.948 V 16.9629 c 0,-1.8758 1.072,-2.9481 2.948,-2.9481 h 42.344 c 1.876,0 2.948,1.0723 2.948,2.9481 v 8.8441 c 0,1.8758 -1.072,2.9481 -2.948,2.9481 h -29.212"
       style="fill:#ed114c;fill-opacity:1;fill-rule:nonzero;stroke:none;stroke-width:0.1"
       id="path4542" /><path
       d="m 175.718,195.886 c -7.506,0 -14.375,5.009 -16.41,12.603 -2.43,9.07 2.952,18.391 12.021,20.822 l 93.543,25.065 c 9.067,2.429 18.39,-2.953 20.821,-12.021 2.43,-9.069 -2.952,-18.391 -12.021,-20.821 l -93.543,-25.065 c -1.473,-0.396 -2.955,-0.583 -4.411,-0.583"
       style="fill:#ed114c;fill-opacity:1;fill-rule:nonzero;stroke:none;stroke-width:0.1"
       id="path4544" /><path
       d="m 244.207,127.411 c -4.351,0 -8.701,1.66 -12.021,4.979 l -68.478,68.479 c -6.639,6.639 -6.639,17.402 0,24.041 6.639,6.639 17.402,6.639 24.042,0 l 68.478,-68.478 c 6.639,-6.639 6.639,-17.403 0,-24.042 -3.32,-3.319 -7.67,-4.979 -12.021,-4.979"
       style="fill:#ed114c;fill-opacity:1;fill-rule:nonzero;stroke:none;stroke-width:0.1"
       id="path4546" /><path
       d="m 244.218,127.407 c -1.457,0 -2.937,0.188 -4.411,0.583 -9.068,2.43 -14.45,11.752 -12.021,20.821 l 25.065,93.544 c 2.43,9.07 11.754,14.448 20.821,12.021 9.069,-2.43 14.451,-11.752 12.021,-20.821 l -25.065,-93.544 c -2.035,-7.595 -8.905,-12.604 -16.41,-12.604"
       style="fill:#38434b;fill-opacity:1;fill-rule:nonzero;stroke:none;stroke-width:0.1"
       id="path4548" /><path
       d="m 281.301,249.972 c -4.155,4.147 -10.346,6.026 -16.423,4.399 0.058,0.014 0.116,0.021 0.174,0.036 -5.744,-1.481 -10.549,-5.919 -12.196,-12.058 l -7.62,-28.442 28.442,7.621 c 6.138,1.647 10.577,6.451 12.058,12.195 -0.016,-0.058 -0.023,-0.116 -0.037,-0.174 1.628,6.077 -0.251,12.269 -4.398,16.423"
       style="fill:#272d33;fill-opacity:1;fill-rule:nonzero;stroke:none;stroke-width:0.1"
       id="path4550" /><path
       d="m 159.306,217.29 c -1.514,-5.672 -0.046,-11.973 4.402,-16.422 -0.041,0.043 -0.076,0.089 -0.119,0.132 4.155,-4.233 10.401,-6.175 16.541,-4.533 l 28.442,7.622 -20.821,20.821 c -4.496,4.493 -10.876,5.935 -16.591,4.345 0.058,0.016 0.113,0.039 0.169,0.056 -6.077,-1.629 -10.499,-6.353 -12.023,-12.021"
       style="fill:#a20936;fill-opacity:1;fill-rule:nonzero;stroke:none;stroke-width:0.1"
       id="path4552" /><path
       d="m 248.608,127.988 c 5.669,1.525 10.392,5.947 12.021,12.024 -0.017,-0.057 -0.039,-0.111 -0.055,-0.169 1.588,5.715 0.148,12.095 -4.345,16.591 l -20.822,20.82 -7.62,-28.441 c -1.644,-6.14 0.298,-12.387 4.532,-16.541 -0.043,0.042 -0.09,0.078 -0.133,0.118 4.449,-4.448 10.751,-5.916 16.422,-4.402"
       style="fill:#272d33;fill-opacity:1;fill-rule:nonzero;stroke:none;stroke-width:0.1"
       id="path4554" /></g></svg>